<svg xmlns="http://www.w3.org/2000/svg" enable-background="new 305.2 0 231.5 595.1" version="1.1" viewBox="305.2 0 231.5 595.1" x="0px" xml:space="preserve" y="0px" style="fill: rgb(0, 0, 0);" role="img" aria-label="Orange Balloon Vector">
<g id="__id18_sd9zzpup0g">
	<path d="m438.5 288.2c-0.2-2.9-4.8-2.9-4.6-0.2 2.3 52.1-16.6 103.2-9.9 155.3 6.5 49.8 45.3 97.5 28.2 149-0.9 2.8 3.5 4 4.5 1.2 16.8-50.5-19-96.8-27.3-145.2-9.1-53.3 11.4-106.5 9.1-160.1z" style="fill: rgb(114, 209, 197);"></path>
</g>
<path d="m535 125.3c-12.5-78.6-73.7-134.1-136.4-124.2s-103.7 81.8-91.2 160.3c10.9 69 77.4 117.3 120 123.9l-2.5 8.6 14.2-2.5 9.6 3.2-2.5-9.6c43.5-9.2 101-82.5 88.8-159.7z" style="fill: rgb(244, 123, 95);"></path>
<g id="__id19_sd9zzpup0g">
	<path d="m388 43c3.2-2.3-3.4-12.6-6.3-10.5-23 15.6-38.8 38.7-45.5 65.5-0.8 3.4 6.6 12.6 7.9 7.7 6.4-25.6 22.1-47.8 43.9-62.7z" style="fill: rgb(207, 255, 249);"></path>
</g>
</svg>